<?xml version="1.0" encoding="UTF-8"?>
<svg id="Layer_1"
	xmlns="http://www.w3.org/2000/svg" viewBox="0 0 1145.68 223.37">
	<defs>
		<style>.cls-1,.cls-2{stroke-width:0px;}.cls-2{fill:#844896;}</style>
	</defs>
	<path class="cls-1" d="m785.87,167.81h-17.73l-34.03-79.4h18.05l24.92,59.59,24.92-59.59h18.05l-34.19,79.4Z"/>
	<path class="cls-2" d="m110.88,6.56L16.89,60.8v104.37l94,54.29,94-54.29V60.8L110.88,6.56Zm77.74,149.23l-77.74,44.89-77.7-44.89v-85.59L110.88,25.34l77.74,44.89v85.55h0Z"/>
	<path class="cls-2" d="m105.48,116.14l-57.84-33.41v64.68l57.84,33.41v-64.68Z"/>
	<path class="cls-2" d="m166.98,151.6l-50.61-29.21v58.42l50.61-29.22Z"/>
	<path class="cls-2" d="m166.96,74.39l-56.05-32.33-56.06,32.33,56.06,32.36,56.05-32.36Z"/>
	<path class="cls-1" d="m309.3,153.91c-21.57,0-38.5-17.1-38.5-39.62s16.93-39.62,38.5-39.62c13.81,0,25.55,6.08,31.95,18.31l13.26-11.39c-7.22-11.05-18.51-18.65-31.99-21.63-37.5-8.3-72.91,22.75-68.61,60.91,3.16,28.1,26.45,49.19,55.39,49.19,19.34,0,36.04-8.54,45.46-23.81l-13.35-10.95c-6.36,12.43-18.18,18.63-32.11,18.63Z"/>
	<path class="cls-1" d="m405,86.81c-23.49,0-42.66,16.78-42.66,41.38s19.17,41.54,42.66,41.54,42.34-16.93,42.34-41.54-19.01-41.38-42.34-41.38Zm0,68.54c-13.9,0-26.36-10.7-26.36-27.16s12.46-27.16,26.36-27.16,26.2,10.71,26.2,27.16-12.62,27.16-26.2,27.16Z"/>
	<path class="cls-1" d="m556.78,86.33c-13.02,0-23.04,5.52-29.43,14.37-.06.08-.18.07-.23-.01-5.14-9.15-14.99-14.35-26.26-14.35s-19.42,4.04-25.16,10.89c-.08.1-.24.04-.24-.09v-8.42c0-.08-.06-.14-.14-.14h-16.33c-.08,0-.14.06-.14.14v78.96c0,.08.06.14.14.14h16.33c.08,0,.14-.06.14-.14v-39.16c0-17.73,8.31-26.84,21.09-26.84,10.22,0,17.89,7.35,17.89,19.01v46.99c0,.08.06.14.14.14h16.33c.08,0,.14-.06.14-.14v-39.16c0-17.73,8.47-26.84,21.41-26.84,10.22,0,17.89,7.35,17.89,19.01v46.99c0,.08.06.14.14.14h16.17c.08,0,.14-.06.14-.14v-50.34c0-18.69-13.58-30.99-30.04-30.99Z"/>
	<path class="cls-1" d="m700.89,86.33c-13.02,0-23.04,5.52-29.43,14.37-.06.08-.18.07-.23-.01-5.14-9.15-14.99-14.35-26.26-14.35s-19.42,4.04-25.16,10.89c-.08.1-.24.04-.24-.09v-8.42c0-.08-.06-.14-.14-.14h-16.33c-.08,0-.14.06-.14.14v78.96c0,.08.06.14.14.14h16.33c.08,0,.14-.06.14-.14v-39.16c0-17.73,8.31-26.84,21.09-26.84,10.22,0,17.89,7.35,17.89,19.01v46.99c0,.08.06.14.14.14h16.33c.08,0,.14-.06.14-.14v-39.16c0-17.73,8.47-26.84,21.41-26.84,10.22,0,17.89,7.35,17.89,19.01v46.99c0,.08.06.14.14.14h16.17c.08,0,.14-.06.14-.14v-50.34c0-18.69-13.58-30.99-30.04-30.99Z"/>
	<path class="cls-1" d="m902.76,88.56h-16.33c-.08,0-.14.06-.14.14v8.62c0,.13-.15.19-.24.1-6.86-7.04-16.67-11.1-28.52-11.1-20.77,0-39.3,16.94-39.3,41.86s18.53,41.86,39.3,41.86c11.85,0,21.66-4.06,28.52-11.1.09-.09.24-.03.24.1v8.62c0,.08.06.14.14.14h16.33c.08,0,.14-.06.14-.14v-78.96c0-.08-.06-.14-.14-.14Zm-42.52,66.78c-14.54,0-25.88-10.38-25.88-27.16s11.34-27.16,25.88-27.16c13.1,0,26.04,10.54,26.04,27.16s-12.94,27.16-26.04,27.16Z"/>
	<path class="cls-1" d="m994.31,88.56h-16.33c-.08,0-.14.06-.14.14v36.45c0,19.97-9.27,29.56-23.49,29.56-11.5,0-19.01-8.79-19.01-21.73v-44.27c0-.08-.06-.14-.14-.14h-16.33c-.08,0-.14.06-.14.14v47.63c0,19.97,12.62,33.71,31.79,33.71,11.52,0,20.7-4.21,27.08-11.69.08-.1.24-.04.24.09v9.23c0,.08.06.14.14.14h16.33c.08,0,.14-.06.14-.14v-78.96c0-.08-.06-.14-.14-.14Z"/>
	<path class="cls-1" d="m1047.98,152.06c-3.16,1.4-6.76,2.33-9.43,2.33-6.07,0-10.22-3.84-10.22-9.27V51.53c0-.08-.06-.14-.14-.14h-16.33c-.08,0-.14.06-.14.14v94.25c0,13.43,10.92,24.4,24.35,24.27,6.91-.07,11.13-1.93,15.18-4.1.06-.03.09-.1.07-.16l-3.13-13.63c-.02-.09-.11-.13-.19-.1Z"/>
	<path class="cls-1" d="m1103.86,150.23c-.03-.08-.13-.12-.2-.07-4.13,2.66-9.17,4.22-13.27,4.22-7.83,0-13.1-4.79-13.1-14.7v-37.24c0-.08.06-.14.14-.14h26.88c.08,0,.14-.06.14-.14v-13.46c0-.08-.06-.14-.14-.14h-26.88c-.08,0-.14-.06-.14-.14v-24.32c0-.08-.06-.14-.14-.14h-16.33c-.08,0-.14.06-.14.14v24.32c0,.08-.06.14-.14.14h-16.81c-.08,0-.14.06-.14.14v13.46c0,.08.06.14.14.14h16.81c.08,0,.14.06.14.14v38.36c0,19.65,11.5,29.24,28.6,29.24,6.68,0,12.09-1.58,19.55-6.01.06-.04.09-.11.06-.17l-5.01-13.63Z"/>
	<path class="cls-1" d="m1121.95,61.93c0,6.21-4.88,11.09-11.22,11.09s-11.29-4.88-11.29-11.09,5.01-10.96,11.29-10.96,11.22,4.88,11.22,10.96Zm-19.71,0c0,4.88,3.61,8.75,8.55,8.75s8.35-3.88,8.35-8.68-3.54-8.82-8.42-8.82-8.48,3.94-8.48,8.75Zm6.75,5.75h-2.54v-10.96c1-.2,2.41-.33,4.21-.33,2.07,0,3.01.33,3.81.8.6.47,1.07,1.34,1.07,2.4,0,1.2-.94,2.14-2.27,2.54v.13c1.07.4,1.67,1.2,2,2.67.33,1.67.53,2.34.8,2.74h-2.74c-.33-.4-.53-1.4-.87-2.67-.2-1.2-.87-1.74-2.27-1.74h-1.2v4.41Zm.07-6.21h1.2c1.4,0,2.54-.47,2.54-1.6,0-1-.74-1.67-2.34-1.67-.67,0-1.14.07-1.4.13v3.14Z"/>
</svg>